<svg width="3005" height="671" viewBox="0 0 3005 671" fill="none" xmlns="http://www.w3.org/2000/svg">
<rect width="3005" height="671" fill="#F0F0F0"/>
<path d="M347.432 440V249.28H474.152V280H382.248V328.896H469.032V359.616H382.248V409.28H474.152V440H347.432ZM499.426 440V300.736H530.914V332.992L527.33 327.616C529.89 317.547 535.01 310.037 542.69 305.088C550.37 300.139 559.415 297.664 569.826 297.664C581.261 297.664 591.33 300.651 600.034 306.624C608.738 312.597 614.37 320.448 616.93 330.176L607.458 330.944C611.725 319.851 618.125 311.573 626.658 306.112C635.191 300.48 645.005 297.664 656.098 297.664C665.997 297.664 674.786 299.883 682.466 304.32C690.317 308.757 696.461 314.987 700.898 323.008C705.335 330.859 707.554 339.989 707.554 350.4V440H674.018V358.336C674.018 352.192 672.909 346.901 670.69 342.464C668.471 338.027 665.399 334.613 661.474 332.224C657.549 329.664 652.77 328.384 647.138 328.384C641.847 328.384 637.154 329.664 633.058 332.224C628.962 334.613 625.805 338.027 623.586 342.464C621.367 346.901 620.258 352.192 620.258 358.336V440H586.722V358.336C586.722 352.192 585.613 346.901 583.394 342.464C581.175 338.027 578.018 334.613 573.922 332.224C569.997 329.664 565.303 328.384 559.842 328.384C554.551 328.384 549.858 329.664 545.762 332.224C541.666 334.613 538.509 338.027 536.29 342.464C534.071 346.901 532.962 352.192 532.962 358.336V440H499.426ZM806.582 443.072C792.929 443.072 780.47 439.915 769.206 433.6C758.113 427.285 749.238 418.667 742.582 407.744C736.097 396.821 732.854 384.363 732.854 370.368C732.854 356.373 736.097 343.915 742.582 332.992C749.238 322.069 758.113 313.451 769.206 307.136C780.299 300.821 792.758 297.664 806.582 297.664C820.235 297.664 832.609 300.821 843.702 307.136C854.795 313.451 863.585 322.069 870.07 332.992C876.726 343.744 880.054 356.203 880.054 370.368C880.054 384.363 876.726 396.821 870.07 407.744C863.414 418.667 854.539 427.285 843.446 433.6C832.353 439.915 820.065 443.072 806.582 443.072ZM806.582 412.352C814.091 412.352 820.662 410.56 826.294 406.976C832.097 403.392 836.619 398.443 839.862 392.128C843.275 385.643 844.982 378.389 844.982 370.368C844.982 362.176 843.275 355.008 839.862 348.864C836.619 342.549 832.097 337.6 826.294 334.016C820.662 330.261 814.091 328.384 806.582 328.384C798.902 328.384 792.161 330.261 786.358 334.016C780.555 337.6 775.947 342.549 772.534 348.864C769.291 355.008 767.67 362.176 767.67 370.368C767.67 378.389 769.291 385.643 772.534 392.128C775.947 398.443 780.555 403.392 786.358 406.976C792.161 410.56 798.902 412.352 806.582 412.352ZM888.846 496.576C886.627 496.576 884.323 496.491 881.934 496.32C879.545 496.149 877.582 495.893 876.046 495.552V466.368C879.118 466.88 882.19 467.136 885.262 467.136C892.43 467.136 897.977 465.429 901.902 462.016C905.998 458.773 908.046 453.739 908.046 446.912V300.736H941.582V446.912C941.582 457.493 939.449 466.453 935.182 473.792C930.915 481.301 924.771 486.933 916.75 490.688C908.899 494.613 899.598 496.576 888.846 496.576ZM908.046 285.12V249.28H941.582V285.12H908.046ZM975.106 440V300.736H1008.64V440H975.106ZM975.106 285.12V249.28H1008.64V285.12H975.106ZM1058.29 440V330.688H1033.72V300.736H1058.29V296.128C1058.29 285.547 1060.43 276.587 1064.69 269.248C1069.13 261.739 1075.28 256.021 1083.13 252.096C1090.98 248.171 1100.28 246.208 1111.03 246.208C1113.08 246.208 1115.3 246.379 1117.69 246.72C1120.25 246.891 1122.38 247.147 1124.09 247.488V276.416C1122.38 276.075 1120.76 275.904 1119.22 275.904C1117.86 275.733 1116.58 275.648 1115.38 275.648C1107.87 275.648 1102.07 277.355 1097.97 280.768C1093.88 284.011 1091.83 289.131 1091.83 296.128V300.736H1122.81V330.688H1091.83V440H1058.29ZM1165.62 496.576C1161.87 496.576 1158.2 496.235 1154.61 495.552C1151.03 495.04 1147.79 494.101 1144.89 492.736V464.576C1147.1 465.088 1149.75 465.6 1152.82 466.112C1156.06 466.624 1159.05 466.88 1161.78 466.88C1169.46 466.88 1175.01 465.088 1178.42 461.504C1182.01 457.92 1185.16 453.227 1187.89 447.424L1197.11 425.92L1196.6 454.08L1135.93 300.736H1172.02L1214.52 413.888H1201.72L1243.96 300.736H1280.31L1219.64 454.08C1216.05 463.125 1211.7 470.805 1206.58 477.12C1201.46 483.435 1195.49 488.213 1188.66 491.456C1182.01 494.869 1174.33 496.576 1165.62 496.576ZM1352.16 440V249.28H1478.88V280H1386.98V328.896H1473.76V359.616H1386.98V409.28H1478.88V440H1352.16ZM1491.61 440L1540.25 370.112L1491.36 300.736H1530.78L1568.92 357.056H1551.26L1589.4 300.736H1628.57L1579.93 370.112L1628.32 440H1589.15L1551.52 383.936H1568.67L1531.04 440H1491.61ZM1712.95 441.536C1697.25 441.536 1685.05 437.269 1676.35 428.736C1667.81 420.032 1663.55 407.829 1663.55 392.128V330.688H1639.48V300.736H1642.04C1648.87 300.736 1654.16 298.944 1657.91 295.36C1661.67 291.776 1663.55 286.571 1663.55 279.744V268.992H1697.08V300.736H1729.08V330.688H1697.08V390.336C1697.08 394.944 1697.85 398.869 1699.39 402.112C1701.09 405.355 1703.65 407.829 1707.07 409.536C1710.65 411.243 1715.17 412.096 1720.63 412.096C1721.83 412.096 1723.19 412.011 1724.73 411.84C1726.44 411.669 1728.06 411.499 1729.59 411.328V440C1727.2 440.341 1724.47 440.683 1721.4 441.024C1718.33 441.365 1715.51 441.536 1712.95 441.536ZM1822.57 443.072C1808.24 443.072 1795.69 439.829 1784.94 433.344C1774.19 426.859 1765.83 418.069 1759.85 406.976C1753.88 395.883 1750.89 383.595 1750.89 370.112C1750.89 356.117 1753.88 343.744 1759.85 332.992C1766 322.069 1774.28 313.451 1784.69 307.136C1795.27 300.821 1807.04 297.664 1820.01 297.664C1830.94 297.664 1840.49 299.456 1848.69 303.04C1857.05 306.624 1864.13 311.573 1869.93 317.888C1875.74 324.203 1880.17 331.456 1883.25 339.648C1886.32 347.669 1887.85 356.373 1887.85 365.76C1887.85 368.149 1887.68 370.624 1887.34 373.184C1887.17 375.744 1886.74 377.963 1886.06 379.84H1778.54V354.24H1867.12L1851.25 366.272C1852.78 358.421 1852.36 351.424 1849.97 345.28C1847.75 339.136 1843.99 334.272 1838.7 330.688C1833.58 327.104 1827.35 325.312 1820.01 325.312C1813.02 325.312 1806.79 327.104 1801.33 330.688C1795.86 334.101 1791.68 339.221 1788.78 346.048C1786.05 352.704 1785.03 360.811 1785.71 370.368C1785.03 378.901 1786.14 386.496 1789.04 393.152C1792.11 399.637 1796.55 404.672 1802.35 408.256C1808.32 411.84 1815.15 413.632 1822.83 413.632C1830.51 413.632 1837 412.011 1842.29 408.768C1847.75 405.525 1852.01 401.173 1855.09 395.712L1882.22 409.024C1879.49 415.68 1875.22 421.568 1869.42 426.688C1863.62 431.808 1856.71 435.819 1848.69 438.72C1840.84 441.621 1832.13 443.072 1822.57 443.072ZM1915.84 440V300.736H1947.32V328.128L1944.76 323.264C1948.01 314.901 1953.3 308.587 1960.64 304.32C1968.15 299.883 1976.85 297.664 1986.75 297.664C1996.99 297.664 2006.03 299.883 2013.88 304.32C2021.91 308.757 2028.13 314.987 2032.57 323.008C2037.01 330.859 2039.23 339.989 2039.23 350.4V440H2005.69V358.336C2005.69 352.192 2004.5 346.901 2002.11 342.464C1999.72 338.027 1996.39 334.613 1992.12 332.224C1988.03 329.664 1983.16 328.384 1977.53 328.384C1972.07 328.384 1967.21 329.664 1962.94 332.224C1958.67 334.613 1955.35 338.027 1952.96 342.464C1950.57 346.901 1949.37 352.192 1949.37 358.336V440H1915.84ZM2123.14 443.072C2108.29 443.072 2095.32 439.573 2084.23 432.576C2073.3 425.408 2065.79 415.765 2061.7 403.648L2086.79 391.616C2090.37 399.467 2095.32 405.611 2101.63 410.048C2108.12 414.485 2115.29 416.704 2123.14 416.704C2129.28 416.704 2134.15 415.339 2137.73 412.608C2141.31 409.877 2143.11 406.293 2143.11 401.856C2143.11 399.125 2142.34 396.907 2140.8 395.2C2139.44 393.323 2137.47 391.787 2134.91 390.592C2132.52 389.227 2129.88 388.117 2126.98 387.264L2104.19 380.864C2092.42 377.451 2083.46 372.245 2077.31 365.248C2071.34 358.251 2068.35 349.973 2068.35 340.416C2068.35 331.883 2070.49 324.459 2074.75 318.144C2079.19 311.659 2085.25 306.624 2092.93 303.04C2100.78 299.456 2109.74 297.664 2119.81 297.664C2132.95 297.664 2144.56 300.821 2154.63 307.136C2164.7 313.451 2171.86 322.325 2176.13 333.76L2150.53 345.792C2148.14 339.477 2144.13 334.443 2138.5 330.688C2132.87 326.933 2126.55 325.056 2119.55 325.056C2113.92 325.056 2109.48 326.336 2106.24 328.896C2103 331.456 2101.38 334.784 2101.38 338.88C2101.38 341.44 2102.06 343.659 2103.43 345.536C2104.79 347.413 2106.67 348.949 2109.06 350.144C2111.62 351.339 2114.52 352.448 2117.76 353.472L2140.03 360.128C2151.47 363.541 2160.26 368.661 2166.4 375.488C2172.72 382.315 2175.87 390.677 2175.87 400.576C2175.87 408.939 2173.66 416.363 2169.22 422.848C2164.78 429.163 2158.64 434.112 2150.79 437.696C2142.94 441.28 2133.72 443.072 2123.14 443.072ZM2204.21 440V300.736H2237.74V440H2204.21ZM2204.21 285.12V249.28H2237.74V285.12H2204.21ZM2339.36 443.072C2325.71 443.072 2313.25 439.915 2301.99 433.6C2290.89 427.285 2282.02 418.667 2275.36 407.744C2268.88 396.821 2265.63 384.363 2265.63 370.368C2265.63 356.373 2268.88 343.915 2275.36 332.992C2282.02 322.069 2290.89 313.451 2301.99 307.136C2313.08 300.821 2325.54 297.664 2339.36 297.664C2353.02 297.664 2365.39 300.821 2376.48 307.136C2387.58 313.451 2396.36 322.069 2402.85 332.992C2409.51 343.744 2412.83 356.203 2412.83 370.368C2412.83 384.363 2409.51 396.821 2402.85 407.744C2396.19 418.667 2387.32 427.285 2376.23 433.6C2365.13 439.915 2352.84 443.072 2339.36 443.072ZM2339.36 412.352C2346.87 412.352 2353.44 410.56 2359.07 406.976C2364.88 403.392 2369.4 398.443 2372.64 392.128C2376.06 385.643 2377.76 378.389 2377.76 370.368C2377.76 362.176 2376.06 355.008 2372.64 348.864C2369.4 342.549 2364.88 337.6 2359.07 334.016C2353.44 330.261 2346.87 328.384 2339.36 328.384C2331.68 328.384 2324.94 330.261 2319.14 334.016C2313.34 337.6 2308.73 342.549 2305.31 348.864C2302.07 355.008 2300.45 362.176 2300.45 370.368C2300.45 378.389 2302.07 385.643 2305.31 392.128C2308.73 398.443 2313.34 403.392 2319.14 406.976C2324.94 410.56 2331.68 412.352 2339.36 412.352ZM2440.83 440V300.736H2472.31V328.128L2469.75 323.264C2473 314.901 2478.29 308.587 2485.63 304.32C2493.14 299.883 2501.84 297.664 2511.74 297.664C2521.98 297.664 2531.02 299.883 2538.87 304.32C2546.9 308.757 2553.12 314.987 2557.56 323.008C2562 330.859 2564.22 339.989 2564.22 350.4V440H2530.68V358.336C2530.68 352.192 2529.49 346.901 2527.1 342.464C2524.71 338.027 2521.38 334.613 2517.11 332.224C2513.02 329.664 2508.15 328.384 2502.52 328.384C2497.06 328.384 2492.2 329.664 2487.93 332.224C2483.66 334.613 2480.34 338.027 2477.95 342.464C2475.56 346.901 2474.36 352.192 2474.36 358.336V440H2440.83ZM2611.01 440V404.16H2644.8V440H2611.01Z" fill="black"/>
</svg>
